<svg viewBox="0 0 32 32" xmlns="http://www.w3.org/2000/svg">
  <!-- Background circle -->
  <circle cx="16" cy="16" r="16" fill="#F8F4F0"/>
  
  <!-- Cupcake wrapper (trapezoid shape) -->
  <path d="M11 16 L21 16 L20 26 L12 26 Z" fill="#D2691E" stroke="#A0522D" stroke-width="0.5"/>
  
  <!-- Wrapper pleats -->
  <g stroke="#A0522D" stroke-width="0.3" opacity="0.7">
    <line x1="13" y1="17" x2="13" y2="25"/>
    <line x1="15" y1="17" x2="15" y2="25"/>
    <line x1="17" y1="17" x2="17" y2="25"/>
    <line x1="19" y1="17" x2="19" y2="25"/>
  </g>
  
  <!-- Frosting dome -->
  <ellipse cx="16" cy="14" rx="6" ry="4" fill="#FFB6C1"/>
  
  <!-- Frosting swirl on top -->
  <path d="M16 10 C14 9, 12 11, 14 12 C16 13, 18 11, 16 10" fill="#FF69B4"/>
  
  <!-- Cherry -->
  <circle cx="16" cy="9" r="1.2" fill="#DC143C"/>
  
  <!-- Cherry stem -->
  <path d="M16 7.8 Q16.5 7 17 6.5" stroke="#228B22" stroke-width="0.8" fill="none"/>
  
  <!-- Small highlights on frosting -->
  <ellipse cx="13" cy="13" rx="0.8" ry="0.5" fill="#FFCCCB" opacity="0.7"/>
  <ellipse cx="19" cy="13.5" rx="0.6" ry="0.4" fill="#FFCCCB" opacity="0.7"/>
</svg>